<?xml version="1.0" encoding="utf-8"?><svg version="1.1" id="Calque_1" xmlns="http://www.w3.org/2000/svg" xmlns:xlink="http://www.w3.org/1999/xlink" x="0px" y="0px" viewBox="0 0 112 110" style="enable-background:new 0 0 112 110;" xml:space="preserve"><style type="text/css">.st0{fill:#4BA2EA;} .st1{fill:#FF3B4A;} .st2{fill:#65CEE7;} .st3{fill:#87C966;} .st4{fill:url(#SVGID_1_);} .st5{fill:#AF27CC;} </style><g><g><path class="st0" d="M88.3,105.5c0.5,1,1,2.6,2.1,3.2c0.8,0.4,1.7,0.3,2.5,0.3h15.7c1.9,0,3.2-2,2.3-3.8c-1-1.9-2-3.7-3-5.6 l-6-11.4c-0.3-0.5-0.6-1.1-0.8-1.7c0,0-0.2-0.4,0.1-1.3c0.3-0.7,3.9-7.9,4.1-8.6c1.5-4.6,19.5-48-31.6-52.4 c0.4,0.2,0.8,0.4,1.1,0.7c4.4,2.8,8.1,6.5,10.9,10.9C89,41,91,47,91.3,53.1c0.3,5.5-0.6,11-2.8,16c-0.8,1.8-1.7,3.5-2.7,5.1 c-1.8,2.8-3.9,5.3-6.4,7.5c-0.5,0.5-1.1,0.9-1.3,1.7c-0.2,0.6-0.2,1.3,0.1,1.8L88.3,105.5z"/><path class="st1" d="M1.2,48.8c8.2-5.6,16.5-6,19.1,1.8c0,0.1,0,0.3,0,0.4c-0.7,6.2,0.2,12.5,2.6,18.2c1.5,3.5,3.6,6.8,6.2,9.7 c1.5,1.7,3.2,3.2,5,4.6c4.9,3.8,10.8,6.2,16.9,7c3.2,0.4,6.5,0.4,9.7,0c0.8-0.1,1.6-0.3,2.3-0.4c0.6-0.1,1.2-0.3,1.7-0.1 c0.9,11-33.7,13.9-55.1-12.5C4.3,70.9,1.8,57.7,1.2,48.8"/></g><path class="st2" d="M108.1,71.1c-0.9,2.8-2,5.5-3.3,8c-0.3,0.5-0.5,1-0.8,1.6c-0.4,0.7-0.8,1.5-1.3,2.2c-0.5,0.8-1.3,1.7-1.6,2.6 l0-0.1c0.3-0.7,0.5-1.4,0.8-2.2c1.5-4.6,2.3-9.5,2.3-14.5c0-10.5-3.4-20.2-9.2-28.1c-5.3-7.2-12.7-12.9-21.3-16.2 c-0.2-0.1-0.3-0.2-0.5-0.3l0,0c1.4,0.7-6.5-19.1,9.8-16.5c0.7,0.4,1.4,0.8,2.1,1.2c4.7,2.8,8.9,6.3,12.5,10.5 c3.9,4.5,7.1,9.6,9.2,15.2c2.4,6,3.5,12.5,3.7,19C110.7,59.4,109.9,65.4,108.1,71.1z"/><path class="st3" d="M87.5,15.6c0,1.3-0.3,2.5-0.7,3.6c-1.4,3.5-4.9,6.1-8.9,6.1c-1.7,0-3.2-0.4-4.6-1.2l0,0 c-4.4-2.5-9.3-4-14.4-4.5c-6.3-0.6-12.7,0.6-18.4,3.3c-2.8,1.3-5.4,3-7.7,4.9c-2.2,1.8-4.2,4-5.9,6.3c-3.2,4.5-5.4,9.7-6.4,15.1 C2.9,27.7,39-6.9,79.4,6.1l0,0l0,0c0.7,0.2,1.4,0.4,2.1,0.6c0.5,0.3,1,0.5,1.6,0.8c0,0,0,0,0,0C85.7,9.2,87.5,12.2,87.5,15.6z"/><linearGradient id="SVGID_1_" gradientUnits="userSpaceOnUse" x1="1.1847" y1="82.3907" x2="81.3217" y2="82.3907" gradientTransform="matrix(1 0 0 -1 0 112)"><stop  offset="0" style="stop-color:#FFDA12"/><stop  offset="1" style="stop-color:#EFE333"/></linearGradient><path class="st4" d="M81.3,6.6c-0.6-0.2-1.2-0.4-1.9-0.5l0,0l0,0c-3-0.8-6.1-1.3-9.4-1.6c-0.9-0.1-1.9-0.1-2.8-0.1 C47.2,4.5,30.1,17.2,23.4,35c-1.7,4.4-2.7,9.2-2.9,14.2c0,0.2-0.1,0.4-0.1,0.5l0,0c0,0.3-0.1,0.6-0.1,0.8l0,0 c-0.8,4.5-4.8,7.9-9.5,7.9c-0.1,0-0.2,0-0.3,0c-5.2-0.1-9.3-4.4-9.3-9.6c0-0.4,0-0.8,0.1-1.2l0,0C2,41.9,3.6,36.3,6.1,31.1 C8.8,25.5,12.5,20.3,17,16c4.5-4.3,9.7-7.9,15.4-10.4C38.2,3,44.4,1.5,50.7,1c3.6-0.3,7.2-0.3,10.9,0.1c2.5,0.2,5,0.6,7.5,1.2 C73.3,3.2,77.4,4.7,81.3,6.6z"/><g><g><path class="st5" d="M72.7,105.4c-0.5,1.4-2,1.7-3.3,2c-1.6,0.4-3.2,0.7-4.8,0.9c-2.9,0.4-5.9,0.6-8.8,0.8 c-3.1,0.1-6.2-0.1-9.2-0.6c-3.2-0.5-6.4-1.2-9.5-2.2c-5.6-1.8-11-4.5-15.7-8.2c-1.5-1.2-3-2.4-4.3-3.7c-3-2.8-5.6-6-7.9-9.5 c-3.3-5.2-5.7-11-7.1-17c-1.4-6.1-1.6-12.8-1-19.1c0,0,0-0.1,0-0.1C1.7,57.7,4.7,66.2,9.6,73C17.5,84,30,91.5,44.3,92.7 c1.3,0.1,2.5,0.1,3.8,0.1c5.8,0,11.4-1,16.6-3c0.1,0,0.1,0,0.3,0.1c0.7,0.2,1.2,0.7,1.6,1.4c1.2,2.3,2.4,4.7,3.5,7.1 c0,0.1,0.1,0.2,0.1,0.3c0.6,1.2,1.2,2.4,1.8,3.6C72.5,103.3,73.1,104.2,72.7,105.4z"/></g></g></g></svg>
