<svg version="1.0" xmlns="http://www.w3.org/2000/svg" width="128px" height="128px" viewBox="0 0 1280 1280" preserveAspectRatio="xMidYMid meet"><g fill="#637481" stroke="none"><path d="M702 1155 c-60 -13 -144 -53 -157 -75 -6 -10 71 -170 83 -170 4 0 25 9 46 20 145 73 296 -6 296 -156 l0 -37 -22 20 c-28 25 -82 53 -103 53 -19 0 -19 14 0 30 20 17 19 50 -2 50 -9 0 -45 -7 -80 -16 -49 -12 -71 -13 -95 -5 -48 17 -188 13 -249 -6 -60 -20 -149 -96 -149 -129 0 -18 8 -19 107 -19 112 0 185 -17 152 -35 -9 -6 -30 -4 -55 5 -46 17 -183 19 -237 4 -30 -8 -53 -7 -107 8 -56 14 -72 15 -82 5 -8 -8 -9 -17 -3 -26 48 -66 47 -59 25 -107 -30 -67 -27 -155 6 -205 59 -86 124 -118 253 -123 54 -2 111 2 134 9 38 11 39 11 78 -34 21 -24 63 -56 91 -70 94 -47 289 -31 324 26 6 9 10 5 14 -12 6 -25 7 -25 115 -25 l110 0 0 365 c0 403 -2 416 -66 514 -80 120 -260 179 -427 141z m-27 -324 c17 -11 29 -11 68 3 60 20 60 20 47 -3 -15 -30 -12 -66 9 -103 32 -55 35 -91 11 -146 -21 -49 -41 -71 -92 -104 l-27 -18 -6 48 c-22 164 -98 231 -275 241 l-94 6 39 33 c22 18 60 39 85 47 54 18 205 15 235 -4z m-191 -186 c45 -19 103 -70 122 -107 51 -99 -29 -221 -174 -263 -40 -12 -146 -6 -190 9 -135 48 -195 157 -142 261 22 44 25 77 10 106 -13 23 -13 23 40 4 37 -13 49 -13 94 0 28 7 62 15 76 17 36 5 121 -9 164 -27z m440 -73 c46 -43 59 -116 30 -178 -47 -98 -210 -99 -257 -2 l-15 32 41 19 c23 10 53 28 65 40 27 25 62 88 62 111 0 13 5 14 27 5 16 -6 36 -18 47 -27z"/></g></svg>
